IKResults																																											
version=1																																											
nRows=10																																											
nColumns=44																																											
inDegrees=yes																																											
																																											
Units are S.I. units (second, meters, Newtons, ...)																																											
Angles are in degrees.																																											
																																											
endheader																																											
time	ground_spine_rot_x	ground_spine_rot_y	ground_spine_rot_z	ground_spine_tx	ground_spine_ty	ground_spine_tz	clav_prot	clav_elev	scapula_abduction	scapula_elevation	scapula_upward_rot	scapula_winging	plane_elv	shoulder_elv	axial_rot	elbow_flexion	pro_sup	clav_prot_l	clav_elev_l	pitch2	roll2	yaw2	aux7jnt_r3	aux7jnt_r1	aux7jnt_r2	aux6jnt_r3	aux6jnt_r1	aux6jnt_r2	aux5jnt_r3	aux5jnt_r1	aux5jnt_r2	aux4jnt_r3	aux4jnt_r1	aux4jnt_r2	aux3jnt_r3	aux3jnt_r1	aux3jnt_r2	pitch1	roll1	yaw1	aux1jnt_r3	aux1jnt_r1	aux1jnt_r2
2.5	1.36153495	6.66448798	0.87109437	-0.76173773	1.09468847	-0.62421386	-30.54592628	5.02032034	4.05523194	-14.00870243	24.04575948	18.44894995	-6.66097258	33.02978053	11.60296232	0	34.32	30.42326055	-1.1607173	0.08085235	0.0261288	-0.03828388	0.86627794	0.20509839	-0.41237888	1.01914802	0.23504013	-0.48037724	1.01914802	0.32336685	-0.48037724	0.76436102	0.32336685	-0.48037724	0.50957401	0.29342597	-0.20618944	-0.22931693	-0.00289404	-0.0741878	-7.30522054	-0.08290805	-0.47182283
2.51	1.33530747	6.56911662	0.78137032	-0.76182127	1.09464938	-0.62390964	-29.7841441	4.62390771	2.49585843	-13.62302119	21.25716443	18.78725019	-5.66156376	34.47297925	10.99828954	0	34.32	30.42326055	-1.1607173	0.08635842	0.02528073	-0.03627591	0.92527174	0.1984415	-0.39074979	1.08855232	0.22741142	-0.45518167	1.08855232	0.31287131	-0.45518167	0.81641424	0.31287131	-0.45518167	0.54427616	0.28390222	-0.1953749	-0.23092972	-0.00242732	-0.07374928	-7.35659831	-0.06953762	-0.46903391
2.52	1.36173438	6.35466602	0.65212961	-0.76215578	1.09445565	-0.62360382	-30.69501492	4.37571471	6.4941646	-15.1054317	26.20060701	18.15603732	-20.14097593	31.58867309	23.84163075	0	34.32	30.42326055	-1.1607173	0.09209365	0.02137363	-0.02416963	0.9867209	0.16777259	-0.2603457	1.16084527	0.19226524	-0.30327487	1.16084527	0.26451741	-0.30327487	0.87063395	0.26451741	-0.30327487	0.58042263	0.24002546	-0.13017285	-0.23273649	-0.00066207	-0.08021952	-7.41415555	-0.01896697	-0.51018359
2.53	1.40619154	6.28379724	0.63826866	-0.76193586	1.09445219	-0.62369003	-29.92247665	4.39317694	4.05352009	-14.24341303	22.80756914	18.51043333	-16.01093866	32.44922511	20.64828295	0	34.32	30.42326055	-1.1607173	0.09096512	0.01670615	-0.02667235	0.97462948	0.13113516	-0.28730401	1.14662011	0.15027922	-0.33467842	1.14662011	0.20675328	-0.33467842	0.85996508	0.20675328	-0.33467842	0.57331005	0.18760977	-0.14365201	-0.22988631	0.00061839	-0.07537772	-7.32335901	0.01771565	-0.47939049
2.54	1.41232284	6.1407062	0.55536354	-0.76198403	1.09434792	-0.6234618	-29.6547966	4.39403826	3.29639441	-13.94039778	21.67968388	18.63479521	-16.73124502	32.34843718	20.82284018	0	34.32	30.42326055	-1.1607173	0.09378744	0.01537699	-0.02507565	1.00486872	0.12070195	-0.27010505	1.1821956	0.13832289	-0.31464346	1.1821956	0.19030383	-0.31464346	0.8866467	0.19030383	-0.31464346	0.5910978	0.17268339	-0.13505252	-0.22959827	0.00061301	-0.0735062	-7.31418307	0.01756139	-0.46748792
2.55	1.41685162	6.01602105	0.4668692	-0.76205343	1.09429691	-0.62324504	-29.3443866	4.11361484	2.37276397	-13.79125305	20.21909891	18.88801613	-17.15789106	32.77701734	21.97720235	0	34.32	30.42326055	-1.1607173	0.09774802	0.01220328	-0.02338041	1.0473036	0.09578984	-0.25184449	1.23211887	0.10977393	-0.29337187	1.23211887	0.15102634	-0.29337187	0.92408915	0.15102634	-0.29337187	0.61605943	0.13704265	-0.12592225	-0.23005439	0.00272081	-0.07195465	-7.32871336	0.07794558	-0.45762029
2.56	1.43487414	5.89570483	0.38399245	-0.76212932	1.09422449	-0.62310077	-29.46924105	3.8944233	3.15682726	-14.22735018	21.0766895	18.78451866	-22.71962451	32.18867332	28.61001088	0	34.32	30.42326055	-1.1607173	0.1003308	0.00978235	-0.03252941	1.07497634	0.07678668	-0.35039392	1.26467495	0.08799655	-0.4081714	1.26467495	0.12106515	-0.4081714	0.94850621	0.12106515	-0.4081714	0.63233747	0.10985559	-0.17519696	-0.22990672	0.00200906	-0.0604137	-7.32400901	0.05755538	-0.38422169
2.57	1.49632807	5.69724138	0.26081653	-0.76246868	1.09408395	-0.62301259	-29.24270912	3.87511051	2.61841285	-13.99669678	20.18832514	18.8788503	-23.26419525	32.05233314	28.63819257	0	34.32	30.42326055	-1.1607173	0.10361106	0.00623742	-0.03033949	1.11012208	0.04896073	-0.32680505	1.30602278	0.05610837	-0.38069289	1.30602278	0.07719357	-0.38069289	0.97951709	0.07719357	-0.38069289	0.65301139	0.07004614	-0.16340252	-0.22846485	0.00032193	-0.05817847	-7.27807614	0.00922253	-0.370006
2.58	1.49097262	5.69817295	0.24855304	-0.7620555	1.09412748	-0.62293896	-28.72518068	3.6039876	0.84044198	-13.47520297	17.52542106	19.33078874	-21.46930748	33.24155217	27.94282554	0	34.32	30.42326055	-1.1607173	0.10492933	0.00469245	-0.03232821	1.12424645	0.03683344	-0.34822672	1.32263963	0.04221065	-0.40564684	1.32263963	0.05807317	-0.40564684	0.99197973	0.05807317	-0.40564684	0.66131982	0.05269611	-0.17411336	-0.22993819	0.00282573	-0.05628389	-7.32501176	0.08095133	-0.35795673
2.59	1.54422903	5.63002566	0.16952828	-0.76212671	1.0940443	-0.62308318	-28.50634223	3.52440409	0.3123882	-13.26757633	16.59818381	19.46248441	-22.44640109	33.29753	28.96053886	0	34.32	30.42326055	-1.1607173	0.10755613	0.00163252	-0.02672952	1.15239081	0.01281447	-0.28791989	1.35575057	0.01468522	-0.33539584	1.35575057	0.02020383	-0.33539584	1.01681292	0.02020383	-0.33539584	0.67787528	0.01833314	-0.14395994	-0.23072088	0.00438519	-0.06027179	-7.34994533	0.12562653	-0.38331914
